<svg version="1.1" id="Layer_1" xmlns="http://www.w3.org/2000/svg" xmlns:xlink="http://www.w3.org/1999/xlink" x="0px" y="0px"
	 width="100%" viewBox="0 0 1674 3240" enable-background="new 0 0 1674 3240" xml:space="preserve">
<path fill="#000000" opacity="1.000000" stroke="none" 
	d="
M2.000000,996.000000 
	C2.000000,664.000000 2.000000,333.000000 2.000000,2.000000 
	C560.000000,2.000000 1118.000000,2.000000 1676.000000,2.000000 
	C1676.000000,1082.000000 1676.000000,2162.000000 1676.000000,3242.000000 
	C1118.000000,3242.000000 560.000000,3242.000000 2.000000,3242.000000 
	C2.000000,2493.666748 2.000000,1745.333374 2.000000,996.000000 
z"/>
<path fill="#1C517D" opacity="1.000000" stroke="none" 
	d="
M907.102661,1425.011353 
	C909.614868,1448.274536 908.766357,1471.607300 907.703369,1494.781128 
	C906.791748,1514.655273 907.377686,1534.568115 905.867920,1554.364014 
	C904.326721,1574.572754 905.218079,1594.836548 903.780945,1614.957764 
	C902.573364,1631.864014 903.579895,1648.848145 901.772522,1665.583130 
	C899.635071,1685.373169 901.886414,1705.304565 898.578918,1724.988281 
	C897.425537,1731.852417 898.629700,1738.868164 898.160461,1745.869141 
	C896.919617,1764.381836 897.173584,1783.001709 895.718506,1801.491211 
	C894.317444,1819.293823 895.336548,1837.211914 892.637756,1854.946167 
	C891.947205,1859.484253 893.199463,1864.293823 892.726135,1868.893066 
	C890.524170,1890.288574 891.269592,1911.864380 888.603333,1933.233765 
	C888.073547,1937.479492 889.056580,1941.894775 888.766663,1946.193115 
	C887.607666,1963.375977 886.930420,1980.596313 885.757263,1997.758179 
	C884.539673,2015.571289 883.470886,2033.401978 882.479431,2051.223145 
	C881.081421,2076.352539 879.196228,2101.450684 877.789246,2126.580566 
	C876.160645,2155.666748 873.718689,2184.717773 871.826477,2213.801025 
	C870.687988,2231.299072 869.219238,2248.791016 867.891357,2266.285156 
	C865.787659,2294.001465 862.619751,2321.639893 860.722412,2349.367432 
	C859.433167,2368.207764 857.575378,2386.987305 855.991760,2405.794189 
	C854.464050,2423.936523 851.910583,2442.005127 850.817688,2460.167236 
	C849.760986,2477.726807 847.448425,2495.137695 845.885193,2512.631104 
	C843.940918,2534.389648 841.179138,2556.075439 838.769043,2577.792480 
	C836.537109,2597.903320 834.433899,2618.029541 832.039062,2638.121094 
	C828.663147,2666.443115 825.232483,2694.760498 821.517944,2723.039795 
	C818.668945,2744.730225 815.497742,2766.381348 812.193298,2788.007812 
	C808.083252,2814.906982 803.766296,2841.775635 799.382690,2868.631836 
	C797.348999,2881.091553 794.607666,2893.443359 792.861511,2905.938477 
	C792.046448,2911.770264 789.608887,2915.108643 783.242188,2916.351562 
	C773.743835,2925.909668 761.368835,2925.240234 750.222595,2927.416260 
	C732.219177,2930.931396 713.871216,2930.285156 695.601318,2930.115479 
	C691.782043,2930.080078 688.487183,2928.748047 684.246094,2927.490723 
	C670.824158,2925.360107 671.224426,2925.319824 669.987854,2913.017090 
	C667.638306,2889.642090 664.745361,2866.322021 662.146851,2842.971680 
	C660.024597,2823.901123 658.189880,2804.796631 655.889526,2785.748291 
	C652.835205,2760.456787 649.449036,2735.205811 646.211060,2709.936523 
	C643.473328,2688.570801 640.840027,2667.191162 637.985840,2645.841064 
	C634.470825,2619.549561 630.898621,2593.264160 627.123840,2567.008789 
	C622.876221,2537.465088 618.459717,2507.945068 613.959412,2478.438721 
	C609.856140,2451.535400 605.697693,2424.638916 601.282471,2397.785645 
	C595.685608,2363.746094 589.953918,2329.727051 584.001343,2295.747803 
	C578.790894,2266.005127 573.201416,2236.328857 567.743713,2206.629639 
	C567.524231,2205.435059 567.651306,2203.916260 565.097046,2203.024658 
	C560.924805,2212.200928 556.520020,2221.316895 552.587402,2230.631836 
	C529.312561,2285.762939 504.976562,2340.429199 480.655243,2395.101318 
	C463.096893,2434.570557 445.552704,2474.049561 427.576202,2513.329102 
	C406.692719,2558.960205 385.356628,2604.383789 364.192780,2649.886475 
	C347.510437,2685.753662 330.882172,2721.646484 314.059753,2757.447754 
	C300.913940,2785.424561 287.659912,2813.353027 274.179291,2841.169678 
	C255.180374,2880.373291 235.927200,2919.453857 216.784302,2958.587402 
	C216.491714,2959.185547 216.205872,2959.787354 215.939240,2960.397461 
	C209.216187,2975.770508 209.216629,2975.770752 191.305481,2976.617188 
	C186.622818,2979.772461 182.190887,2980.324463 177.420837,2979.949951 
	C161.661560,2978.713379 145.925323,2978.900391 130.111008,2979.536621 
	C121.174858,2979.896240 111.608269,2979.155029 103.012543,2972.765625 
	C96.359138,2969.302734 89.698448,2968.017822 84.185669,2964.022705 
	C81.120522,2961.801025 79.968483,2959.608887 81.552994,2955.695068 
	C85.420959,2946.141602 88.744431,2936.369629 92.402924,2926.729492 
	C103.389587,2897.778809 111.252121,2867.861084 119.444588,2838.073975 
	C135.133621,2781.029785 148.208939,2723.337891 160.519028,2665.484131 
	C170.472961,2618.703125 180.282928,2571.884277 189.419876,2524.938721 
	C200.396011,2468.543213 210.804611,2412.034668 221.052490,2355.501221 
	C228.393555,2315.003174 235.077545,2274.386475 242.034500,2233.819092 
	C248.206802,2197.826904 254.516983,2161.857178 260.465546,2125.827881 
	C267.816864,2081.302734 274.857880,2036.725952 282.032227,1992.171387 
	C289.102173,1948.265625 296.305023,1904.380737 303.193146,1860.446411 
	C307.717010,1831.591797 311.712311,1802.654785 316.079193,1773.775024 
	C320.442291,1744.920166 325.111969,1716.111206 329.394409,1687.244629 
	C334.409851,1653.437744 339.164154,1619.592041 344.006317,1585.759521 
	C345.604584,1574.592285 347.123871,1563.413818 348.668884,1551.364136 
	C350.690186,1546.652832 354.463409,1545.981445 358.080322,1546.125000 
	C373.288391,1546.729004 386.969788,1541.144775 400.102264,1534.878784 
	C436.895996,1517.322876 476.339874,1509.363892 515.934937,1502.268311 
	C566.335327,1493.236206 617.247803,1488.491821 668.396729,1485.636719 
	C705.531799,1483.563599 742.722839,1482.309692 779.800903,1479.605469 
	C812.670959,1477.208252 845.357605,1472.706665 874.218140,1454.399780 
	C883.661194,1448.409790 891.073547,1440.438232 898.081909,1431.978760 
	C900.428650,1429.146240 902.429810,1426.057861 907.102661,1425.011353 
z"/>
<path fill="#D9453B" opacity="1.000000" stroke="none" 
	d="
M907.929932,1425.049805 
	C903.221130,1430.157104 900.412415,1436.660645 895.676514,1441.871338 
	C882.035034,1456.880249 864.823425,1465.844971 845.942505,1472.125488 
	C824.956970,1479.105957 803.213806,1482.271606 781.289001,1483.620483 
	C739.793457,1486.173584 698.227722,1487.608643 656.742126,1490.295532 
	C585.968628,1494.879028 515.680359,1502.979492 446.984680,1521.683716 
	C434.738281,1525.018066 422.924896,1529.350464 411.359650,1534.495483 
	C404.068146,1537.739258 396.733490,1540.892090 389.356262,1543.935669 
	C376.866486,1549.088379 363.931366,1551.672852 349.510620,1550.376831 
	C327.212036,1542.646851 317.747345,1525.912964 313.825806,1504.588867 
	C311.139282,1489.980103 313.001373,1475.568970 313.951324,1461.050415 
	C315.509399,1437.237305 316.362762,1413.370605 318.317780,1389.592651 
	C320.948669,1357.594727 323.034637,1325.542480 327.434845,1293.697388 
	C331.925171,1261.199951 335.788361,1228.616455 340.128510,1196.097534 
	C344.207367,1165.536255 348.622192,1135.020020 352.753632,1104.465576 
	C355.860596,1081.487549 358.253693,1058.436157 360.330902,1035.332642 
	C365.791840,974.593445 363.831451,913.720581 364.278595,852.891418 
	C364.469269,826.951111 363.583099,800.991150 364.270142,775.068848 
	C365.546936,726.894104 374.098999,680.100159 393.166412,635.530273 
	C403.270599,611.911804 414.821289,589.127563 431.041473,569.024109 
	C446.082062,550.382568 464.221283,535.692200 487.169617,526.238892 
	C493.733704,530.890503 492.838470,537.971680 493.756470,544.365601 
	C500.257996,589.650513 517.717712,629.789124 549.513550,663.155457 
	C557.847229,671.900757 558.042603,671.716858 563.386292,661.006287 
	C565.165039,657.440918 566.842041,653.819641 568.795532,650.347839 
	C580.451294,629.632690 596.135803,614.628235 622.194336,613.136719 
	C626.552246,612.096619 630.210632,611.959839 634.645813,612.591553 
	C659.928101,614.016663 678.965027,625.685425 694.085083,644.283997 
	C698.909973,650.218811 701.312439,649.347656 703.989685,642.759521 
	C720.895264,601.158081 719.086365,560.570312 697.862671,520.904541 
	C695.438721,516.374268 691.042664,512.399536 693.835205,505.915710 
	C708.311035,511.801056 722.419922,517.177002 737.777649,519.042664 
	C745.972839,520.038208 754.229248,520.745239 762.400208,521.341492 
	C815.031128,525.181641 865.473511,537.735229 914.162170,557.790527 
	C914.773071,558.042297 915.431702,558.178223 916.810425,558.489624 
	C925.737488,559.208679 926.106750,566.697327 929.020752,571.829346 
	C931.131836,575.547302 932.695923,579.580994 932.916504,584.728699 
	C930.322632,591.346924 931.656738,597.254028 933.149048,602.980103 
	C935.380737,611.543823 936.045593,620.040894 933.068726,628.460388 
	C930.616760,635.395081 933.088196,639.385132 939.252625,642.924316 
	C952.766663,650.682739 967.204834,656.824585 979.884766,666.043152 
	C983.007935,668.313904 986.630676,668.619995 991.051270,668.489990 
	C999.063171,671.433533 1004.224182,677.254333 1010.019226,682.118652 
	C1022.538696,692.627319 1036.243530,701.265076 1050.435547,709.262817 
	C1057.057983,712.994690 1060.857544,712.022156 1064.165405,704.620056 
	C1072.689087,685.546875 1080.968262,666.344177 1090.271606,647.635864 
	C1093.274292,641.597778 1092.266602,635.401489 1093.495605,628.723328 
	C1130.339355,614.557190 1167.572266,603.450745 1204.518921,591.456787 
	C1237.344727,580.800476 1269.668945,568.609131 1302.350586,557.495544 
	C1347.296387,542.211609 1392.658447,528.482910 1440.172607,523.550110 
	C1442.459229,523.312805 1444.695801,522.627136 1446.972656,522.254639 
	C1451.575562,521.501465 1454.652344,523.246643 1455.945190,528.605530 
	C1458.802368,531.706909 1461.345825,534.212219 1462.667969,537.806580 
	C1467.030151,549.665222 1471.780518,561.373718 1476.563843,573.068115 
	C1477.596069,575.591797 1477.990967,578.181091 1477.457520,581.606628 
	C1479.722778,586.521118 1481.492676,590.878357 1483.928833,594.824402 
	C1487.159668,600.057434 1485.853149,603.896484 1481.787842,608.012634 
	C1468.668213,621.295715 1454.590942,633.366394 1439.190796,643.958435 
	C1403.691406,668.374329 1365.164795,687.065369 1325.858154,704.296631 
	C1273.515259,727.242615 1221.224976,750.311646 1168.740723,772.930054 
	C1143.721802,783.712097 1118.059937,792.770264 1091.326660,798.578552 
	C1082.597534,800.475098 1074.483765,804.574280 1065.581909,806.226257 
	C1045.691040,809.917542 1025.938721,808.474182 1006.210938,805.333862 
	C987.144409,802.298767 968.569824,797.170593 950.277832,791.100159 
	C945.450806,789.498108 942.365479,789.784302 939.349426,794.337585 
	C926.493652,813.745300 912.264526,832.173340 897.723511,850.322998 
	C894.168579,854.760071 893.377686,858.778320 894.153564,863.901672 
	C897.032654,882.913391 898.633972,902.047241 899.990723,921.229126 
	C902.127197,951.435181 902.521606,981.707825 901.591125,1011.890808 
	C900.885559,1034.778320 901.175903,1057.746094 899.531006,1080.532227 
	C898.044434,1101.125366 898.291138,1121.702637 898.026855,1142.229248 
	C897.518860,1181.682129 899.509338,1221.108887 905.446594,1260.258911 
	C906.932068,1270.053833 906.963928,1280.207153 906.468323,1290.136108 
	C905.396362,1311.614624 910.091797,1332.386108 913.167114,1353.359619 
	C915.679138,1370.491577 917.205322,1387.577515 914.351440,1404.841553 
	C913.473328,1410.153809 911.321594,1415.022339 909.995972,1420.949707 
	C909.411377,1422.427002 908.904846,1423.135986 908.176758,1424.459229 
	C907.956177,1425.074341 907.897949,1425.082275 907.929932,1425.049805 
z"/>
<path fill="#D1D1D1" opacity="1.000000" stroke="none" 
	d="
M1342.431152,509.573303 
	C1317.211792,506.713654 1292.338379,503.143005 1267.495728,499.370270 
	C1239.400757,495.103577 1211.331299,490.667999 1183.254272,486.283295 
	C1145.374756,480.367706 1107.502441,474.406616 1069.619385,468.513733 
	C1052.314453,465.821869 1034.991455,463.246155 1016.883057,460.648499 
	C1011.325928,457.569641 1010.586182,452.485413 1010.129272,447.552032 
	C1005.195374,394.285583 998.578735,341.194672 993.478210,287.943726 
	C992.658203,279.382690 991.918213,270.748596 990.493896,262.196625 
	C989.479248,256.103790 988.525208,249.594833 992.432373,242.863297 
	C1017.861877,232.312149 1042.809204,222.449524 1067.860596,212.858551 
	C1119.537476,193.073807 1171.263794,173.418365 1222.981934,153.741180 
	C1248.061157,144.199249 1273.167236,134.728241 1299.035278,125.387009 
	C1302.694824,128.296677 1302.042480,131.613281 1301.178589,134.868225 
	C1289.641602,178.342102 1291.363892,222.469543 1293.679077,266.802368 
	C1295.678711,305.091705 1299.818481,343.088531 1306.157959,380.820557 
	C1312.004028,415.616821 1318.964478,450.213776 1331.749512,483.363770 
	C1335.087036,492.017456 1342.158813,498.999969 1342.431152,509.573303 
z"/>
<path fill="#E6AB82" opacity="1.000000" stroke="none" 
	d="
M636.111206,615.120850 
	C631.479858,615.805664 627.655396,616.911011 622.901489,615.945801 
	C618.417847,615.433594 614.827515,614.776428 611.712952,612.676697 
	C578.904053,590.558411 549.153198,565.562439 532.132263,528.494263 
	C527.951050,519.388245 524.986389,509.958496 523.242310,500.099640 
	C522.349670,495.053711 522.358032,490.208588 525.181885,484.898315 
	C526.832336,475.953461 523.255005,467.987213 523.924072,458.920959 
	C520.268066,450.462311 522.959229,442.381500 521.901123,434.580750 
	C520.479370,424.099121 519.103210,413.710144 513.123169,404.489868 
	C510.265045,400.083099 508.011841,395.200897 506.216187,390.240356 
	C502.861786,380.973480 499.869781,371.862488 486.597504,376.015228 
	C483.966431,376.838470 480.776886,375.150543 478.834473,371.739014 
	C462.645691,357.480865 453.729584,339.929230 449.850830,318.674194 
	C449.616760,317.907318 449.199646,317.021149 449.291138,316.540100 
	C449.516724,313.276001 449.650818,310.493011 449.739746,306.874634 
	C451.035309,295.291656 456.092194,290.466949 466.442780,290.504486 
	C477.906921,290.546051 486.667114,296.174683 494.210938,304.312714 
	C500.208008,310.782227 501.694763,310.886841 505.004669,302.813171 
	C515.178589,277.996277 521.725586,252.200516 521.425049,225.229538 
	C521.336853,217.315994 522.965210,211.853302 529.763428,207.655777 
	C540.244751,201.184052 550.371887,194.165298 561.631592,188.992538 
	C579.987976,180.559494 598.165894,179.939270 616.533875,189.048630 
	C629.356567,195.407883 642.101929,201.938721 655.655457,206.753693 
	C681.243591,215.844009 704.700989,215.344269 723.897278,192.944702 
	C726.281006,190.163239 729.549133,187.423141 733.470154,189.467499 
	C737.828430,191.739853 738.725220,196.008743 737.418213,201.408722 
	C740.531128,225.084808 744.064575,247.986954 746.107056,271.119537 
	C747.835266,290.693298 748.332825,310.282867 747.633362,329.838928 
	C746.374878,365.022797 735.667114,397.522003 717.613647,427.687164 
	C710.228271,440.027161 702.912048,452.826263 689.001282,458.496246 
	C679.306519,462.447723 676.105103,468.365906 677.643372,478.007050 
	C677.955994,479.965912 677.907776,481.982330 678.274292,484.841278 
	C685.319702,506.268219 681.901489,526.954834 679.117981,547.582642 
	C676.686707,565.599915 670.187134,582.186279 659.862000,597.133606 
	C654.161682,605.385620 647.564331,612.836853 636.111206,615.120850 
z"/>
<path fill="#4F1939" opacity="1.000000" stroke="none" 
	d="
M737.847778,201.906708 
	C734.304443,198.644669 735.007202,193.874741 732.933472,190.068008 
	C729.399780,189.696701 728.599426,192.812973 727.062073,194.713211 
	C711.635803,213.780167 692.111023,220.349091 668.295776,214.426605 
	C654.970459,211.112778 642.281250,206.182358 630.046875,200.008072 
	C624.990417,197.456299 619.923767,194.924896 614.862610,192.382538 
	C597.507751,183.664825 580.198975,184.657776 562.789124,192.359970 
	C549.885559,198.068573 539.035706,207.112320 526.862610,213.987976 
	C524.844543,215.127808 523.939758,216.679550 524.450928,218.887863 
	C527.638550,232.657974 524.531067,246.076035 521.965393,259.454407 
	C519.519470,272.208557 516.287048,284.804626 512.043274,297.098358 
	C509.424866,304.683472 506.029999,311.864227 499.890747,317.314606 
	C496.509613,316.400482 496.030701,313.454376 494.773285,311.345581 
	C490.872345,304.803528 485.250183,300.260803 478.645538,296.813934 
	C465.669434,290.041901 457.914459,292.451111 450.301910,305.675720 
	C442.165955,297.877167 441.110596,287.614075 441.352264,277.377136 
	C441.548798,269.050629 441.791473,260.744324 441.509033,252.417633 
	C441.093994,240.181580 444.164215,228.738708 449.738037,217.932404 
	C452.369507,212.830612 455.668182,208.092148 460.997833,205.608307 
	C465.272461,203.616180 464.374847,200.936935 463.487762,197.480682 
	C458.689240,178.784866 457.320984,160.101196 465.135040,141.789078 
	C474.786469,119.171173 490.269928,104.082848 515.978760,101.061432 
	C526.982910,99.768158 537.910706,99.666298 548.800354,100.473351 
	C553.195251,100.799057 554.742493,99.742142 556.111267,96.159485 
	C561.363220,82.413086 571.106445,71.966934 581.749268,62.321518 
	C587.544189,57.069637 594.907715,54.355347 602.313904,52.518543 
	C629.609680,45.748993 653.793640,50.675613 673.475159,72.987740 
	C678.519409,68.335487 683.423401,63.547115 688.613281,59.091682 
	C695.439697,53.231239 702.741150,48.264954 711.360779,45.014217 
	C723.937622,40.271095 734.301392,44.114613 743.387268,52.327473 
	C756.271667,63.973816 760.296021,79.716644 762.112427,96.278336 
	C763.379150,107.827698 761.750977,119.448746 762.579468,130.885117 
	C763.294678,140.757980 762.439392,150.135468 759.909546,159.396164 
	C755.679321,174.881073 749.742371,189.643784 737.847778,201.906708 
z"/>
<path fill="#D8453B" opacity="1.000000" stroke="none" 
	d="
M992.153564,241.826660 
	C996.661926,278.366791 1000.408875,314.686737 1004.264160,350.995209 
	C1008.084351,386.972107 1012.013733,422.937347 1015.992310,459.793457 
	C1008.479004,465.420593 999.593506,466.647430 990.645508,469.908539 
	C986.284851,474.621216 981.021790,475.668854 975.815430,476.884399 
	C952.707153,482.279633 929.347229,485.171478 905.573486,484.110352 
	C901.907654,483.946716 898.203186,484.102417 894.324585,481.124207 
	C885.437622,480.102386 877.329773,479.510071 869.255737,478.932739 
	C862.072266,478.419098 859.605652,475.236755 858.574158,469.194366 
	C858.300293,467.590057 857.891541,466.008759 857.401001,463.658386 
	C852.670105,457.718262 851.227844,451.321381 849.950928,444.761322 
	C842.656555,407.287811 837.743408,369.564117 835.411865,331.409485 
	C834.499451,316.479126 834.067444,301.598969 833.911133,286.678192 
	C833.869629,282.718719 833.606689,278.636505 836.885864,274.480408 
	C837.899658,257.123413 837.824463,256.856750 853.767578,252.361023 
	C876.791504,245.868607 900.050171,240.975677 924.088501,239.205215 
	C946.066528,237.586487 967.754822,238.359711 989.488647,241.188522 
	C990.145752,241.274063 990.789551,241.461548 992.153564,241.826660 
z"/>
<path fill="#485963" opacity="1.000000" stroke="none" 
	d="
M1342.586670,510.917786 
	C1322.029785,481.119141 1315.196289,447.152191 1308.110718,413.427582 
	C1297.983643,365.225891 1292.311890,316.421661 1289.535645,267.227631 
	C1287.752808,235.636978 1287.238159,204.116486 1289.986084,172.585938 
	C1291.345703,156.986725 1293.597534,141.553726 1299.971436,126.321243 
	C1299.809326,125.548912 1299.937744,125.790413 1299.816528,125.853729 
	C1300.324341,125.636337 1300.845581,125.217834 1301.640137,124.327370 
	C1311.041260,120.113564 1313.686768,120.714859 1318.902100,127.620979 
	C1326.246704,137.346680 1330.360352,148.636414 1334.270874,159.952087 
	C1344.734741,190.231415 1350.657715,221.592590 1356.019409,253.080841 
	C1360.641846,280.227539 1363.854370,307.554413 1366.224121,334.968994 
	C1367.445068,349.093506 1368.039673,363.286621 1368.816895,377.448151 
	C1369.726929,394.029877 1370.526123,410.629761 1369.812744,427.145508 
	C1368.844604,449.559540 1368.686646,472.187439 1362.183960,494.018524 
	C1361.518433,496.252533 1360.905396,498.506042 1360.138062,500.705139 
	C1356.783325,510.320251 1353.856567,512.149048 1342.586670,510.917786 
z"/>
<path fill="#EB5F50" opacity="1.000000" stroke="none" 
	d="
M524.886963,484.437927 
	C526.165710,517.816284 541.856323,544.718994 563.861389,568.566528 
	C580.673584,586.786377 600.570557,601.321533 621.695923,615.272095 
	C620.623169,617.425842 618.732361,617.922607 616.676392,617.915833 
	C604.907532,617.877197 595.854553,623.627136 587.631958,631.328674 
	C575.675598,642.527344 569.104614,657.061951 562.475891,671.563904 
	C559.643860,677.759827 559.277954,677.953979 554.597900,673.632263 
	C530.448364,651.331543 513.704224,624.194824 502.140381,593.611572 
	C494.101532,572.350708 490.103149,550.265503 487.912659,526.907227 
	C497.518585,510.074615 509.532104,496.156250 524.886963,484.437927 
z"/>
<path fill="#485862" opacity="1.000000" stroke="none" 
	d="
M893.693115,481.392944 
	C899.845276,480.510620 906.156860,480.237152 912.467224,480.263031 
	C934.187317,480.352051 955.517517,477.364014 976.624207,472.447357 
	C980.498474,471.544861 984.424377,470.863953 989.131958,470.121948 
	C988.780884,474.237488 990.134277,478.059937 991.330078,481.813049 
	C995.642944,495.348846 1000.101685,508.838104 1004.464417,523.131714 
	C1008.513489,527.874268 1008.587158,532.572083 1007.315796,537.739624 
	C1005.361389,545.683044 1001.445801,552.645203 996.311218,558.769470 
	C984.770691,572.534668 972.089355,585.295105 958.410400,596.884155 
	C945.995789,607.401978 934.245911,602.728088 930.670715,585.980347 
	C927.371826,576.280212 923.711121,567.564514 918.027710,559.094238 
	C912.430969,541.899658 905.458008,525.805420 900.988953,508.875580 
	C898.634583,499.956848 896.232483,491.050781 893.693115,481.392944 
z"/>
<path fill="#E5AB81" opacity="1.000000" stroke="none" 
	d="
M930.132568,585.975586 
	C933.365601,588.907288 935.899109,592.841248 939.018066,596.237488 
	C943.368958,600.975037 946.519958,601.761780 951.139648,597.908203 
	C969.481873,582.607910 987.928650,567.290283 1000.307739,546.314453 
	C1004.080200,539.922119 1006.179993,532.962219 1004.475342,524.641479 
	C1012.512268,527.591125 1019.718384,532.012817 1021.070679,541.982544 
	C1021.279358,543.521179 1022.457947,545.096863 1024.154419,545.669983 
	C1029.018433,547.313110 1031.001099,550.422852 1029.886353,555.589294 
	C1029.543945,557.176697 1030.218140,558.803589 1031.843018,559.828491 
	C1040.005005,564.976562 1042.398438,573.163757 1044.378540,582.001526 
	C1045.268188,585.971985 1048.351318,589.491394 1048.073486,594.791870 
	C1048.408813,598.598450 1048.235596,601.614197 1046.446655,604.173584 
	C1031.283691,625.866760 1017.614319,648.734436 997.558105,666.595032 
	C996.066711,667.923096 994.527771,669.186157 991.762695,669.620605 
	C988.527893,672.429688 986.292969,675.214966 981.960327,671.922607 
	C966.748291,660.363220 949.109863,652.934937 932.718262,643.375183 
	C926.193115,639.569702 925.860291,639.469604 928.355286,632.575500 
	C932.005310,622.489624 932.607178,612.551758 929.145447,602.298035 
	C927.413025,597.166504 927.077942,591.837036 930.132568,585.975586 
z"/>
<path fill="#485862" opacity="1.000000" stroke="none" 
	d="
M836.600220,273.784607 
	C837.556030,278.005463 837.911011,282.308441 837.877258,286.608368 
	C837.660706,314.170898 839.793762,341.616058 842.585571,368.984558 
	C845.747925,399.985748 851.126648,430.676147 857.339600,462.048401 
	C845.330261,462.603210 833.403992,462.273468 821.475830,462.035461 
	C818.809570,461.982239 816.235901,461.429657 813.631714,461.124176 
	C808.796143,460.557007 806.821228,457.901428 806.001770,453.518036 
	C803.388672,439.540344 800.267395,425.645477 798.075012,411.604187 
	C795.016052,392.012390 792.988281,372.298676 791.192810,352.523346 
	C789.451294,333.342255 789.823425,314.262115 789.780090,295.124420 
	C789.760132,286.319855 790.528076,285.079010 799.112305,282.585022 
	C811.194153,279.074890 823.312561,275.626251 836.600220,273.784607 
z"/>
<path fill="#495862" opacity="1.000000" stroke="none" 
	d="
M991.568176,670.154846 
	C991.951965,667.038147 993.787476,665.100525 995.748413,663.288818 
	C1016.724365,643.908997 1031.834473,620.059937 1047.578247,595.878784 
	C1059.212402,606.101318 1070.479980,616.264832 1083.434692,624.385803 
	C1086.254761,626.153564 1088.910400,628.150879 1093.197021,628.103760 
	C1094.056641,629.156799 1093.820068,630.677246 1094.359131,631.037842 
	C1099.716797,634.621155 1097.802856,638.853638 1095.790771,643.268433 
	C1087.499512,661.460815 1079.268188,679.680542 1071.022583,697.893799 
	C1068.823975,702.750244 1066.755493,707.668579 1064.443115,712.469849 
	C1061.652222,718.264893 1061.273926,718.489807 1055.394775,715.620789 
	C1031.834595,704.123230 1010.750610,689.100952 991.568176,670.154846 
z"/>
<path fill="#EB5F50" opacity="1.000000" stroke="none" 
	d="
M636.169922,615.740112 
	C636.160706,614.446106 636.775146,613.095459 637.824280,612.427979 
	C659.666260,598.532043 668.780945,576.906677 674.049011,552.949768 
	C677.631226,536.659363 678.548279,520.144165 678.119629,503.511719 
	C677.982849,498.206329 678.168091,492.892670 678.364380,486.646545 
	C684.940979,490.813721 687.327759,499.193604 694.054932,504.907288 
	C693.881653,508.828308 696.117920,511.086060 697.744141,513.536560 
	C710.369141,532.560608 716.135620,553.599976 718.338013,576.249084 
	C720.042175,593.773865 718.276489,610.625305 713.629211,627.268860 
	C710.721802,637.681396 707.172485,648.032227 700.182129,657.679199 
	C694.229370,650.948486 689.572327,644.153931 683.626160,638.437805 
	C672.040344,627.300110 659.191223,619.081238 642.739502,617.644592 
	C640.792053,617.474609 638.908997,616.567261 636.169922,615.740112 
z"/>
<path fill="#D5493F" opacity="1.000000" stroke="none" 
	d="
M683.935181,3040.183838 
	C678.161438,3020.604736 676.574036,3001.297852 679.532471,2981.707031 
	C679.828247,2979.749023 680.447021,2977.827881 681.048157,2975.931396 
	C681.537903,2974.386719 682.225769,2972.904541 683.335388,2970.112305 
	C684.723877,2976.719727 685.584351,2982.026611 686.125732,2987.484131 
	C687.335327,2999.676514 691.496033,3010.838135 700.225159,3019.744385 
	C705.790283,3025.422363 706.186279,3025.229248 712.666931,3020.558105 
	C722.915344,3013.170898 734.117126,3010.637939 746.463135,3013.872803 
	C753.437256,3015.700439 759.036621,3019.920898 764.260925,3024.566650 
	C777.587158,3036.416992 792.529297,3045.590576 809.166382,3051.907471 
	C826.323303,3058.421387 844.047852,3060.844482 861.979004,3056.103760 
	C883.051147,3050.532471 899.253784,3038.890625 906.139832,3017.015869 
	C906.536438,3015.755859 906.907471,3014.487793 907.302673,3013.227295 
	C908.432007,3009.625000 910.528748,3009.585693 913.338196,3011.462891 
	C918.994080,3015.242188 923.145630,3020.214355 926.235046,3026.876709 
	C899.169800,3034.872559 888.586182,3056.732666 879.849121,3081.016113 
	C877.465454,3086.319092 873.202271,3087.361816 868.853577,3087.095703 
	C847.500244,3085.786865 826.012695,3085.632568 805.101379,3080.136230 
	C801.551208,3079.203369 798.127441,3078.173828 794.452148,3075.565674 
	C788.095642,3067.426758 783.173950,3059.239746 776.293274,3052.435303 
	C757.050293,3033.402832 738.667786,3032.389648 717.396240,3050.066895 
	C703.706055,3054.861816 693.731812,3049.110107 683.935181,3040.183838 
z"/>
<path fill="#E4AA81" opacity="1.000000" stroke="none" 
	d="
M1478.095581,581.766968 
	C1470.912720,571.912964 1467.555786,559.976379 1462.803955,548.664612 
	C1460.361694,542.850952 1458.470337,536.805847 1456.174072,530.096130 
	C1472.572876,522.351929 1488.354858,514.013672 1502.407959,502.698822 
	C1508.709106,497.625458 1513.362305,491.107727 1517.527954,484.276611 
	C1521.202881,478.250458 1525.461304,472.844604 1532.029297,468.588715 
	C1538.568970,459.720123 1548.589355,460.251801 1557.858643,457.134521 
	C1563.952759,456.247070 1568.750610,457.066986 1571.370605,462.189636 
	C1574.201050,467.724213 1571.429199,472.317993 1567.914307,476.488281 
	C1565.586426,479.250153 1562.957520,481.719116 1559.089844,484.049133 
	C1556.339722,484.910126 1554.719727,486.137848 1552.897583,486.903290 
	C1538.118408,493.111938 1538.122681,493.097260 1538.100342,509.432800 
	C1538.083984,521.361572 1538.293579,533.293640 1537.979858,545.217651 
	C1537.850830,550.117188 1537.980713,555.457153 1530.900757,557.509949 
	C1511.492432,562.454651 1494.422119,570.525085 1478.095581,581.766968 
z"/>
<path fill="#E3E1E1" opacity="1.000000" stroke="none" 
	d="
M683.449036,3040.525391 
	C691.079651,3041.322754 697.718201,3046.009766 705.359314,3047.988770 
	C708.353455,3048.764160 711.320984,3051.437500 715.211914,3048.225098 
	C727.707031,3049.166504 739.575623,3050.030762 751.524048,3050.342773 
	C762.868103,3050.638916 772.511719,3056.107666 781.415649,3062.788330 
	C785.399353,3065.777832 789.492004,3068.596191 794.454224,3071.567871 
	C798.974365,3075.843018 804.189575,3075.885498 809.005127,3076.819336 
	C831.873291,3081.253906 854.893982,3083.936035 878.965332,3082.018799 
	C895.449707,3082.978760 910.335144,3080.079102 924.834351,3072.000977 
	C926.664001,3071.237305 927.601379,3071.518311 928.206238,3073.400391 
	C922.341736,3085.801758 911.835754,3091.727539 900.392761,3095.290039 
	C879.968323,3101.648193 858.932617,3102.930420 837.545898,3100.906250 
	C821.718506,3099.408447 805.994751,3097.581787 790.465820,3094.196289 
	C782.036377,3092.358398 773.888672,3089.907959 766.276184,3085.543945 
	C753.130981,3078.008301 738.824646,3074.281738 723.650269,3073.624512 
	C717.731995,3073.368652 711.865295,3072.349365 706.153564,3070.504395 
	C691.667053,3065.824463 684.675964,3056.896240 683.449036,3040.525391 
z"/>
<path fill="#D5493F" opacity="1.000000" stroke="none" 
	d="
M80.761223,3060.661133 
	C79.806816,3049.698486 79.784157,3039.542480 82.475830,3028.683594 
	C84.811401,3023.737793 82.765480,3017.761230 89.015900,3015.617920 
	C89.687820,3016.915771 89.712547,3017.819580 89.635391,3019.394531 
	C89.189697,3020.683105 88.818909,3021.283936 88.333832,3022.388428 
	C88.276054,3024.678223 88.301079,3026.444580 88.249268,3028.870605 
	C89.167633,3031.148682 88.930687,3032.983643 89.372391,3035.357178 
	C91.516556,3042.753662 95.847778,3047.246826 101.835945,3050.954590 
	C115.562508,3059.453125 123.905540,3071.782715 126.123924,3088.007812 
	C126.482590,3090.631104 127.336594,3093.182373 127.839783,3095.790527 
	C133.087326,3122.989502 155.423050,3132.010254 176.443207,3129.769775 
	C195.826477,3127.703613 213.134567,3120.872803 226.846878,3106.281006 
	C232.008331,3100.788574 232.817932,3100.914551 237.459320,3106.928711 
	C246.198792,3118.253662 251.318771,3130.740479 249.349091,3145.333252 
	C245.642853,3146.232422 243.729965,3143.941406 241.510284,3142.704590 
	C209.196289,3124.700195 168.118973,3128.587402 141.115662,3157.757568 
	C138.416672,3160.673096 136.152374,3163.990723 133.130020,3167.597656 
	C128.158981,3169.979004 125.651825,3166.893799 123.311142,3164.199463 
	C116.013802,3155.800049 110.520599,3146.444824 109.048340,3134.396484 
	C112.082962,3120.525391 110.401901,3107.264648 109.485725,3094.175537 
	C108.666626,3082.473145 101.511749,3075.958252 91.062958,3075.461426 
	C81.750076,3074.439697 81.589149,3067.771729 80.761223,3060.661133 
z"/>
<path fill="#511B3A" opacity="1.000000" stroke="none" 
	d="
M478.338623,371.784912 
	C486.378906,373.897888 493.659271,374.478271 499.609711,367.823090 
	C502.813660,369.593445 502.992279,372.437103 503.838989,374.762054 
	C508.619720,387.888855 514.200562,400.625946 521.569214,412.533752 
	C522.784912,414.498291 524.317261,416.392914 524.319641,418.838379 
	C524.331726,431.393860 526.256714,443.951782 524.011353,457.284149 
	C499.371307,464.200439 477.851044,445.637970 475.103973,422.381165 
	C474.360596,416.087616 474.999298,410.011902 475.453400,404.058563 
	C476.253174,393.573608 474.738068,382.866638 478.338623,371.784912 
z"/>
<path fill="#4C5C65" opacity="1.000000" stroke="none" 
	d="
M1558.645020,459.132874 
	C1550.041138,462.515747 1542.036255,465.277435 1533.313721,468.118408 
	C1532.712891,443.594849 1532.792480,418.991791 1532.975342,394.389496 
	C1533.014160,389.173157 1531.589111,383.155090 1536.659912,379.563782 
	C1542.807983,375.209381 1549.455566,370.926117 1557.487915,371.957031 
	C1576.898560,374.448303 1596.274658,377.226562 1615.629761,380.121613 
	C1622.506470,381.150208 1623.870728,382.932617 1623.919556,390.038513 
	C1624.070312,411.985474 1624.071655,433.933441 1624.181641,456.799713 
	C1620.799316,459.559326 1618.439941,457.812042 1615.896973,454.543945 
	C1612.210571,440.644318 1614.557129,427.313568 1613.897461,414.105316 
	C1613.698975,410.130188 1613.700317,406.129547 1613.868164,402.154449 
	C1614.192505,394.469147 1610.992798,390.608124 1603.003784,389.911560 
	C1592.783203,389.020508 1582.608398,387.331909 1572.492798,385.667328 
	C1563.707764,384.221680 1562.076782,388.185791 1562.111328,395.412689 
	C1562.190674,412.014893 1562.205811,428.618683 1562.090454,445.221130 
	C1562.058472,449.817230 1562.664795,454.613861 1558.645020,459.132874 
z"/>
<path fill="#DEDDDD" opacity="1.000000" stroke="none" 
	d="
M111.522583,3133.388672 
	C114.106537,3147.768066 121.803108,3158.263184 132.025436,3167.840576 
	C139.418274,3175.752686 147.957962,3180.541260 158.051407,3182.181641 
	C175.611038,3185.035400 193.210739,3187.951172 211.004028,3183.838135 
	C226.151886,3180.336914 238.781891,3173.340820 246.159317,3157.999023 
	C247.075302,3156.884033 247.765121,3156.705566 248.992645,3157.096191 
	C249.103409,3178.029297 236.839951,3190.130127 219.466080,3197.897217 
	C205.604309,3204.094238 190.924591,3205.692871 175.820587,3202.909668 
	C170.965347,3202.015137 165.880005,3202.363770 161.028290,3201.456787 
	C137.257401,3197.012451 122.984367,3181.383789 113.669388,3160.303955 
	C108.572350,3148.769043 106.128403,3136.343506 102.559669,3124.309326 
	C99.323357,3113.396484 95.161743,3102.944824 88.724297,3093.676025 
	C81.923164,3083.883789 79.417313,3073.360840 80.503296,3060.814453 
	C82.521973,3064.787109 84.468788,3069.674561 89.124733,3073.536133 
	C92.201324,3074.316650 93.794670,3076.033691 94.939110,3078.078857 
	C104.447037,3095.069092 111.039452,3112.936279 111.522583,3133.388672 
z"/>
<path fill="#E1A981" opacity="1.000000" stroke="none" 
	d="
M684.042786,2927.886719 
	C687.204895,2926.095947 691.220642,2926.620117 695.189758,2926.668945 
	C724.210693,2927.026855 753.014526,2925.575928 781.703247,2916.448730 
	C782.480042,2918.086670 782.459351,2919.744385 782.444031,2921.401855 
	C782.356689,2930.862061 782.356567,2930.858887 773.413452,2932.362549 
	C764.863220,2933.800049 756.717957,2936.609375 749.246399,2940.884766 
	C737.870361,2947.394287 734.093018,2956.236084 736.361389,2969.341309 
	C736.697876,2971.285400 737.216492,2973.197510 737.495728,2975.983887 
	C735.847656,2979.354004 733.772583,2980.335693 730.233887,2978.966797 
	C727.322021,2978.562256 725.100403,2978.476807 721.924744,2978.356689 
	C714.704163,2977.443115 708.796692,2975.610107 703.005432,2972.916992 
	C692.488342,2968.025879 686.106506,2961.415039 687.304932,2948.548096 
	C687.923706,2941.904053 687.015991,2934.755127 684.042786,2927.886719 
z"/>
<path fill="#4F5E67" opacity="1.000000" stroke="none" 
	d="
M1530.689941,558.072876 
	C1533.860352,555.524353 1533.821899,551.942810 1533.807617,548.217468 
	C1533.740112,530.687378 1533.740723,513.156738 1533.795288,495.626587 
	C1533.821899,487.114380 1533.940308,487.313507 1541.964966,485.674225 
	C1546.791626,484.688263 1551.467896,482.966461 1556.998779,481.520020 
	C1562.755981,484.857910 1562.033691,490.132355 1562.074951,495.022034 
	C1562.237549,514.301514 1562.037842,533.582764 1562.178101,552.862366 
	C1562.269531,565.424744 1563.604004,566.338196 1576.407959,564.525085 
	C1585.930420,563.176514 1595.457520,561.902771 1604.959961,560.389038 
	C1611.679932,559.318665 1613.844482,555.755554 1613.836304,549.551636 
	C1613.823120,539.579773 1613.782715,529.606567 1613.891479,519.634644 
	C1613.934814,515.662048 1613.639038,511.622498 1616.089722,507.175598 
	C1623.040161,502.832550 1623.687622,507.101990 1623.934570,512.772949 
	C1623.911377,528.605164 1624.005615,543.534241 1623.901123,558.461792 
	C1623.840698,567.097229 1623.010010,568.023254 1614.562866,569.271606 
	C1595.907104,572.028748 1577.237061,574.689026 1558.564575,577.331360 
	C1547.613037,578.881042 1535.591797,570.836914 1532.479126,560.034424 
	C1532.311401,559.452515 1531.714966,558.994019 1530.689941,558.072876 
z"/>
<path fill="#CA4D43" opacity="1.000000" stroke="none" 
	d="
M729.699707,2979.298340 
	C731.713928,2978.130859 733.884216,2977.614258 736.697510,2976.970459 
	C742.363708,2986.978027 751.464966,2992.713135 762.003418,2998.226562 
	C771.642029,2999.686279 777.334656,3006.611572 786.018799,3008.866455 
	C787.080688,3009.209473 787.510742,3009.325928 788.556641,3009.691162 
	C792.108704,3011.771240 795.316040,3013.079346 798.968018,3014.918457 
	C799.987915,3015.269531 800.398987,3015.405762 801.412109,3015.788086 
	C804.678528,3017.545410 807.825317,3017.996094 811.125427,3020.881836 
	C817.845581,3028.071533 826.061462,3029.185303 833.623718,3031.691650 
	C835.966370,3032.467773 836.621948,3030.668213 837.762817,3028.797363 
	C845.601868,3015.941895 855.583618,3005.277588 869.861328,2998.705566 
	C872.491272,2998.094482 875.087158,2998.224365 877.662292,2998.049561 
	C880.424561,2997.862305 882.081421,2998.869141 882.684204,3002.302002 
	C883.466248,3003.796143 883.451172,3004.595703 882.165894,3005.842285 
	C871.811829,3012.088379 860.769409,3016.230957 854.040283,3027.079834 
	C866.030457,3024.505615 872.434692,3015.123291 880.746887,3007.182617 
	C881.922607,3006.062012 882.603027,3005.429932 884.000854,3004.736816 
	C886.782410,3006.635254 886.328064,3008.767090 885.092834,3010.976807 
	C874.092346,3030.655029 853.906128,3048.002930 826.743225,3037.674316 
	C805.341064,3029.536133 783.774658,3021.690186 763.918640,3010.003662 
	C750.625671,3002.179688 738.833679,2992.660645 729.699707,2979.298340 
z"/>
<path fill="#CA4D43" opacity="1.000000" stroke="none" 
	d="
M762.003784,2998.066895 
	C764.700806,2982.515869 774.314880,2971.495605 786.002258,2961.877197 
	C788.013916,2960.221924 790.716980,2959.369873 792.074951,2956.182617 
	C785.741882,2955.695312 781.328796,2959.096191 777.320007,2962.725586 
	C770.924316,2968.516357 765.166687,2974.856201 760.961548,2982.597412 
	C759.488281,2985.309814 758.275757,2991.201416 753.721436,2988.773438 
	C748.735535,2986.115723 752.839172,2981.666992 754.382324,2978.397705 
	C759.140137,2968.317627 767.276184,2960.892090 774.838867,2951.970459 
	C775.914795,2949.354004 777.667908,2948.864746 780.650024,2948.152100 
	C787.320251,2949.116455 792.038208,2946.112793 797.207458,2945.739014 
	C801.041199,2945.461426 804.575439,2944.930908 805.764099,2949.635986 
	C806.415100,2952.213135 808.564392,2951.835205 810.209534,2952.621582 
	C812.913879,2953.914062 812.389465,2956.235352 811.553589,2959.829590 
	C810.851318,2961.726562 810.246948,2962.214844 809.074524,2962.892578 
	C808.243713,2963.343262 807.913391,2963.520996 807.079895,2963.933838 
	C805.912354,2964.457275 805.241516,2964.729492 804.095703,2965.228271 
	C803.316772,2965.629639 803.005737,2965.787354 802.231812,2966.177490 
	C801.461365,2966.559814 801.153687,2966.709717 800.390198,2967.084473 
	C799.632385,2967.454102 799.330261,2967.599121 798.579407,2967.959473 
	C797.542053,2968.460449 796.954529,2968.748047 795.960449,2969.307617 
	C795.552917,2969.577881 794.743774,2970.138428 794.336914,2970.416748 
	C793.320190,2970.999512 792.823303,2971.433594 792.090454,2972.395020 
	C791.494019,2973.057617 791.246460,2973.322266 790.609741,2973.981934 
	C789.373474,2975.159912 788.584839,2976.000977 787.345215,2977.283203 
	C786.557678,2977.995117 786.215149,2978.260254 785.298218,2978.852295 
	C779.876892,2983.287598 777.172607,2988.890137 774.197937,2994.299805 
	C771.690857,2998.858887 768.362305,3001.317627 762.463135,2998.378418 
	C761.909546,2997.942627 761.977722,2998.021729 762.003784,2998.066895 
z"/>
<path fill="#CA4D43" opacity="1.000000" stroke="none" 
	d="
M203.515137,3080.562500 
	C204.758682,3082.156738 206.546875,3081.879150 208.134979,3082.181641 
	C210.728912,3082.675537 213.259293,3083.537354 215.863647,3083.936035 
	C221.648209,3084.821533 217.442047,3090.489502 220.003418,3092.480225 
	C222.805664,3094.658203 227.417496,3093.339844 229.780670,3096.750977 
	C230.606049,3097.942139 230.219879,3099.405029 228.789993,3100.010986 
	C226.889114,3100.816406 224.879547,3100.421875 222.891830,3100.095215 
	C197.909012,3095.989258 174.036072,3099.935791 151.010742,3110.031250 
	C149.794754,3110.564209 148.517639,3110.976562 147.240417,3111.346191 
	C145.796341,3111.764160 144.668793,3111.324463 144.048035,3109.871094 
	C143.470917,3108.520264 143.570847,3107.044922 144.613342,3106.192383 
	C145.851135,3105.179932 147.448059,3104.572510 148.944519,3103.915283 
	C165.861038,3096.488281 183.544464,3092.496338 202.032074,3092.186035 
	C206.208008,3092.115723 210.386124,3092.175781 214.568192,3091.440186 
	C205.177277,3086.633301 195.189590,3087.500000 185.379593,3088.208496 
	C173.353043,3089.076904 161.987259,3092.894287 150.944504,3097.630615 
	C149.113831,3098.415527 147.354416,3099.382324 145.489288,3100.066650 
	C143.818344,3100.679688 141.815857,3100.472168 140.957657,3099.003418 
	C139.603073,3096.685547 141.536636,3095.366455 143.344788,3094.406494 
	C158.237381,3086.501221 174.080215,3082.077148 190.964401,3081.499756 
	C194.949142,3081.363525 198.932358,3081.182373 203.515137,3080.562500 
z"/>
<path fill="#E1A981" opacity="1.000000" stroke="none" 
	d="
M1624.391357,513.110352 
	C1620.932739,512.064209 1623.946411,507.222931 1619.207275,506.112488 
	C1606.712891,507.675232 1601.644775,503.852142 1601.024536,492.247223 
	C1600.478149,482.021301 1600.733643,471.752563 1601.556519,461.561707 
	C1602.342896,451.820465 1607.759033,449.300446 1617.759521,454.206543 
	C1619.837769,455.781677 1621.485107,456.646667 1623.682251,457.615051 
	C1627.016724,460.450806 1627.844849,463.701050 1627.763794,467.625031 
	C1627.525757,479.168152 1627.509766,490.722748 1627.758911,502.265228 
	C1627.842407,506.133545 1627.076782,509.461517 1624.391357,513.110352 
z"/>
<path fill="#CA4D43" opacity="1.000000" stroke="none" 
	d="
M820.439880,2967.970215 
	C824.849976,2968.049561 827.746277,2967.868164 830.636597,2967.936523 
	C832.074768,2967.970215 832.968323,2969.226074 833.325378,2970.444336 
	C833.704407,2971.737793 833.139465,2973.155029 831.918701,2973.765625 
	C828.756897,2975.347412 825.491699,2976.722412 821.789185,2978.698242 
	C821.317444,2980.038818 820.525635,2981.306885 822.798584,2981.389404 
	C828.235168,2979.515381 833.278015,2977.445801 838.224365,2975.166504 
	C840.665894,2974.041504 842.511536,2974.257568 844.235229,2977.237549 
	C844.776550,2978.615234 844.939026,2979.366211 844.943726,2980.728516 
	C844.797424,2981.685303 844.678284,2982.058350 844.228088,2982.920898 
	C843.367615,2983.999268 842.787964,2984.532959 841.661377,2985.335938 
	C840.826904,2985.854492 840.481567,2986.040527 839.596680,2986.450195 
	C837.555481,2987.010254 836.146362,2987.543701 834.567261,2988.995605 
	C833.865112,2989.658936 833.572876,2989.914795 832.818359,2990.532471 
	C832.032776,2991.118652 831.709412,2991.342773 830.886230,2991.882812 
	C829.706665,2992.600342 829.020996,2992.991699 827.812012,2993.697754 
	C826.922607,2994.217773 826.551025,2994.414062 825.583130,2994.849854 
	C822.511963,2996.356689 820.636292,2998.245117 818.973511,3001.248047 
	C818.500000,3002.260742 818.292969,3002.656250 817.707825,3003.601074 
	C816.410828,3005.110107 815.589661,3006.142822 814.701965,3007.950195 
	C814.197449,3008.969482 813.961975,3009.364258 813.273132,3010.283203 
	C809.666382,3014.631104 807.948975,3020.577393 800.437134,3018.373535 
	C799.868164,3017.948975 799.976746,3018.021973 800.029663,3018.060303 
	C794.715332,3012.671631 798.567871,3008.068115 801.645020,3002.938232 
	C801.892395,3002.503174 802.249207,3001.903320 802.077637,3002.173828 
	C798.206238,3006.636230 798.041199,3015.243896 788.452515,3012.336426 
	C787.899170,3011.902100 788.001343,3011.981201 788.053284,3012.019531 
	C784.546448,3008.781982 784.994507,3004.790039 786.835571,3001.125488 
	C794.065552,2986.735840 803.014221,2973.890381 820.439880,2967.970215 
z"/>
<path fill="#E1A981" opacity="1.000000" stroke="none" 
	d="
M102.352554,2972.895508 
	C111.741066,2972.081543 120.627342,2975.217773 129.866714,2976.236816 
	C149.462402,2978.397461 169.005386,2977.912842 189.509888,2976.502441 
	C188.770172,2983.940918 187.099991,2991.264893 185.397766,2998.729248 
	C181.953751,2996.968750 182.062332,2993.645508 181.069504,2990.981445 
	C178.740494,2984.732178 174.110001,2980.904785 167.755493,2980.595703 
	C158.519287,2980.145996 149.226028,2979.687500 139.965958,2981.261963 
	C125.885178,2983.655762 116.332863,2990.988037 112.550758,3005.103027 
	C112.301727,3006.032227 111.901817,3006.921143 111.416008,3008.258301 
	C106.580322,3004.814697 105.429604,2998.502686 99.826187,2995.203857 
	C97.914871,2994.358887 97.213715,2993.498779 97.409348,2991.621826 
	C99.248970,2985.295166 100.790100,2979.496582 102.352554,2972.895508 
z"/>
<path fill="#CA4D43" opacity="1.000000" stroke="none" 
	d="
M189.338226,3060.195312 
	C193.414688,3059.471191 196.527573,3062.790039 200.437759,3060.010498 
	C196.326355,3056.550293 191.535767,3056.236328 186.867447,3055.902832 
	C170.285141,3054.717529 154.592239,3058.163330 139.626755,3065.259521 
	C136.962234,3066.522705 134.510818,3068.552979 131.320663,3068.210693 
	C130.451584,3068.117432 129.249176,3067.542236 128.936981,3066.854004 
	C128.623108,3066.162109 128.927917,3064.750977 129.493027,3064.191162 
	C130.638885,3063.055420 132.082596,3062.173340 133.509247,3061.375488 
	C152.102646,3050.975098 172.063354,3047.725342 193.060059,3050.226807 
	C195.654221,3050.535645 198.179260,3051.500977 200.707245,3052.259033 
	C202.073608,3052.668945 203.601166,3054.362549 203.142120,3055.006592 
	C199.375153,3060.292236 202.908493,3062.053223 206.936508,3063.901855 
	C207.582901,3064.198242 208.053925,3065.527344 208.077759,3066.393555 
	C208.126694,3068.172852 206.622375,3068.344482 205.293320,3068.390381 
	C198.982834,3068.607910 192.970779,3066.498779 186.573730,3066.468018 
	C170.926880,3066.393066 156.504990,3070.485596 142.465134,3076.838135 
	C139.480621,3078.188721 135.452347,3082.454346 133.092621,3077.774658 
	C130.768738,3073.165771 136.544174,3072.110107 139.422073,3070.827148 
	C154.999069,3063.884033 171.199982,3059.441406 189.338226,3060.195312 
z"/>
<path fill="#CA4D43" opacity="1.000000" stroke="none" 
	d="
M171.998322,3006.535645 
	C176.166016,3009.270752 181.299744,3008.144043 185.473343,3010.121582 
	C187.180893,3010.930420 188.257416,3011.933838 188.093658,3013.792725 
	C187.901321,3015.975342 186.223557,3016.162842 184.474686,3016.116455 
	C181.921982,3016.048584 179.424911,3014.557373 175.890259,3015.739014 
	C179.171585,3019.306152 183.276627,3018.838867 186.593674,3020.150879 
	C188.600555,3020.945068 190.205215,3022.140137 189.397858,3024.581543 
	C188.731415,3026.596924 186.925430,3026.450439 185.253052,3026.149170 
	C180.367264,3025.269043 175.595673,3023.997070 170.556076,3023.703857 
	C155.474213,3022.826904 141.777222,3027.531738 128.308456,3033.406982 
	C126.486938,3034.201660 124.818710,3035.360596 122.976067,3036.089355 
	C121.730354,3036.581787 120.322456,3036.362793 119.335480,3035.277100 
	C118.930077,3034.831055 118.434486,3033.751709 118.570877,3033.631592 
	C124.343353,3028.550293 114.181259,3026.916260 116.226982,3022.676514 
	C117.525154,3019.986572 120.288132,3019.334717 122.602440,3018.208252 
	C136.169479,3011.605713 150.271286,3007.083740 165.618515,3007.594238 
	C167.590256,3007.660156 169.577179,3007.269775 171.998322,3006.535645 
z"/>
<path fill="#D5493F" opacity="1.000000" stroke="none" 
	d="
M173.265839,3005.637207 
	C172.439575,3005.980469 172.566727,3006.020508 172.626358,3006.007324 
	C163.855942,3001.145020 154.409729,3001.958252 144.980148,3003.122314 
	C136.142136,3004.213379 127.548721,3006.427002 119.123840,3009.945801 
	C119.881721,2997.528076 131.363998,2985.651367 143.923569,2984.364502 
	C150.848724,2983.655029 157.912964,2983.867188 164.570816,2986.196533 
	C171.448502,2988.602783 176.798416,2992.846191 178.216446,3000.573486 
	C178.800812,3003.757812 177.849594,3005.803467 173.265839,3005.637207 
z"/>
<path fill="#D5493F" opacity="1.000000" stroke="none" 
	d="
M774.027100,2951.999268 
	C766.944946,2952.006104 763.139526,2957.656494 758.491577,2961.572510 
	C754.227295,2965.165527 750.770874,2969.717773 746.937683,2973.869629 
	C741.084229,2967.304932 740.234924,2960.891602 744.914612,2955.520996 
	C755.035889,2943.905273 767.699463,2937.450195 783.374573,2937.654785 
	C785.032654,2937.676270 786.733704,2937.665039 788.333191,2938.028076 
	C790.055603,2938.419189 791.161560,2939.713379 791.260925,2941.559082 
	C791.348206,2943.179932 790.115723,2943.756104 788.835022,2944.234375 
	C786.662476,2945.046387 784.497986,2945.879883 782.155701,2947.409424 
	C781.981323,2948.114502 782.096558,2948.042236 782.087830,2947.974854 
	C780.045837,2949.735352 777.289062,2949.991699 774.438477,2951.580078 
	C773.913818,2951.976318 773.997437,2952.043213 774.027100,2951.999268 
z"/>
<path fill="#CA4D43" opacity="1.000000" stroke="none" 
	d="
M811.980591,2960.064941 
	C813.585144,2959.975830 815.236511,2959.818115 816.891418,2959.718018 
	C822.406860,2959.384033 823.090637,2962.277588 821.731628,2967.397949 
	C821.956177,2968.127930 822.023071,2968.030273 822.064697,2967.988281 
	C806.703857,2972.213135 796.682190,2982.790039 788.933960,2996.101562 
	C785.822021,3001.447754 782.869507,3009.363037 775.071045,3004.746582 
	C767.636658,3000.345703 774.193359,2994.117432 776.158264,2989.033691 
	C777.954956,2984.384521 781.184265,2980.455078 785.495728,2976.527100 
	C786.047424,2975.977783 786.001892,2976.015625 785.984985,2976.040039 
	C786.913818,2974.830078 787.645325,2973.395996 789.603821,2972.313232 
	C790.072205,2971.957031 790.011597,2972.010010 789.983765,2972.039062 
	C791.038940,2970.958740 792.137024,2969.864502 793.634888,2968.347656 
	C794.041504,2967.932129 793.983215,2967.984619 793.949951,2968.005371 
	C794.822327,2967.157715 796.035034,2967.028320 797.627380,2966.316895 
	C798.097961,2965.954346 798.001709,2966.005615 797.954346,2966.032715 
	C798.807251,2965.169434 800.025269,2965.027832 801.630005,2964.315674 
	C802.103882,2963.950684 802.003479,2964.006836 801.954102,2964.036133 
	C802.805847,2963.170410 804.028259,2963.028076 805.636414,2962.309326 
	C806.111633,2961.942871 805.992859,2962.003662 805.933105,2962.033203 
	C807.341675,2960.571533 809.327698,2961.211426 811.596191,2960.375000 
	C812.133423,2959.947266 812.028992,2960.022461 811.980591,2960.064941 
z"/>
<path fill="#CA4D43" opacity="1.000000" stroke="none" 
	d="
M121.809982,3044.963867 
	C125.454788,3037.222656 133.099670,3035.792969 139.594635,3033.359619 
	C154.640991,3027.722412 170.228149,3025.233887 186.218872,3029.568115 
	C187.795731,3029.995850 189.477615,3030.252197 190.890732,3031.002441 
	C192.121231,3031.656006 192.538376,3033.170166 191.891479,3034.462646 
	C191.523361,3035.197998 190.550369,3036.016357 189.784607,3036.086182 
	C188.164261,3036.234863 186.442993,3036.149902 184.864838,3035.754639 
	C166.531219,3031.161377 149.503616,3035.444580 132.860062,3043.039307 
	C129.496628,3044.573975 126.396912,3048.225586 121.809982,3044.963867 
z"/>
<path fill="#CA4D43" opacity="1.000000" stroke="none" 
	d="
M204.258789,3080.206543 
	C199.340256,3076.487305 193.282669,3076.288086 187.748001,3076.778564 
	C172.535080,3078.127441 157.709366,3081.510010 143.928467,3088.505127 
	C142.755844,3089.100098 141.532425,3089.637207 140.276367,3090.013916 
	C138.879852,3090.432373 137.464066,3089.913818 136.799683,3088.761475 
	C136.120377,3087.583252 136.462891,3086.093506 137.589996,3085.172852 
	C138.600922,3084.347168 139.775192,3083.688477 140.949875,3083.101318 
	C154.740570,3076.210205 169.055634,3071.311279 184.738541,3071.569824 
	C189.055786,3071.641113 193.376007,3071.585693 197.694168,3071.532471 
	C201.366562,3071.487061 204.978943,3071.821533 208.457169,3073.059570 
	C210.827911,3073.903564 214.387344,3074.019775 213.340637,3077.839111 
	C212.511719,3080.864014 209.684738,3079.734863 207.475906,3079.445068 
	C206.819244,3079.359131 206.157516,3079.311523 204.806061,3079.674561 
	C204.113983,3080.102783 204.212402,3080.169434 204.258789,3080.206543 
z"/>
<path fill="#CA4D43" opacity="1.000000" stroke="none" 
	d="
M843.957397,2982.297852 
	C845.904358,2982.378174 847.872314,2982.230225 849.827820,2981.983398 
	C852.369507,2981.663086 854.740356,2982.174316 855.271729,2984.897217 
	C855.920349,2988.220703 853.586670,2989.274170 850.674072,2989.971924 
	C843.782532,2991.623291 838.251343,2995.858154 832.786011,3000.103760 
	C827.009216,3004.591797 822.218384,3009.867188 819.587524,3016.868896 
	C818.529053,3019.685547 817.386414,3022.635010 812.610474,3021.652344 
	C811.904846,3021.939941 811.992188,3021.994385 812.034424,3022.023682 
	C808.088562,3018.188965 809.538391,3013.887695 811.553894,3008.749756 
	C812.034363,3007.920166 811.988037,3007.990234 811.962158,3008.023438 
	C813.586853,3006.688232 814.348206,3004.743408 815.652832,3002.415283 
	C816.029968,3001.924316 815.988403,3001.985107 815.962646,3002.011230 
	C819.020630,2999.000244 822.069763,2995.928223 825.582336,2992.401367 
	C826.037109,2991.937988 825.982422,2991.987549 825.950562,2992.006348 
	C826.820251,2991.161621 828.023193,2991.027588 829.612183,2990.333740 
	C830.081360,2989.974609 830.010437,2990.008545 829.976440,2990.028320 
	C830.288635,2989.782471 830.634827,2989.516846 831.577271,2988.981201 
	C834.103210,2986.844482 836.513245,2985.815918 839.462036,2984.422852 
	C839.977295,2984.017822 840.000000,2984.000000 840.012085,2983.993164 
	C840.862366,2983.126465 842.004700,2983.027832 843.511292,2982.405273 
	C843.941284,2982.045898 843.972900,2982.025879 843.957397,2982.297852 
z"/>
<path fill="#CA4D43" opacity="1.000000" stroke="none" 
	d="
M187.706757,3039.633057 
	C189.723328,3040.084961 191.063446,3040.253174 192.288452,3040.722168 
	C194.441299,3041.546387 197.068893,3042.330566 196.022247,3045.482422 
	C194.850632,3049.010498 192.271606,3047.070801 190.238205,3046.535156 
	C171.535019,3041.610352 154.180359,3046.136230 137.287216,3053.991943 
	C136.685043,3054.272217 136.112030,3054.644531 135.483109,3054.832764 
	C132.542160,3055.711914 128.788177,3060.022705 126.802612,3056.409912 
	C124.049408,3051.400635 130.184982,3049.831787 133.194641,3048.457275 
	C150.252487,3040.667236 167.945724,3035.817383 187.706757,3039.633057 
z"/>
<path fill="#CA4D43" opacity="1.000000" stroke="none" 
	d="
M870.050903,2997.951172 
	C854.493347,2999.538330 843.023987,3007.686035 834.553040,3020.524902 
	C833.640686,3021.907715 832.927917,3023.421875 832.024963,3024.811768 
	C830.941650,3026.479004 829.235657,3026.484619 827.608521,3026.014893 
	C825.576355,3025.427734 825.677368,3023.612061 825.711243,3021.965576 
	C825.753357,3019.919434 826.419800,3018.055420 827.586609,3016.381104 
	C836.597900,3003.450928 847.874268,2993.708984 863.854492,2990.548584 
	C868.821472,2989.566406 870.652161,2991.729736 869.970581,2997.296387 
	C869.904541,2998.098633 870.001953,2998.000244 870.050903,2997.951172 
z"/>
<path fill="#CA4D43" opacity="1.000000" stroke="none" 
	d="
M97.295189,2991.492188 
	C98.144997,2992.055176 98.582146,2993.017090 99.117996,2994.353516 
	C93.995300,3000.384033 92.777817,3007.822754 89.990646,3015.360352 
	C84.215714,3017.684082 86.600571,3023.807861 83.106186,3027.333496 
	C84.014732,3018.353516 87.346794,3009.450684 90.606018,3000.520508 
	C91.883469,2997.020020 94.018753,2994.206299 97.295189,2991.492188 
z"/>
<path fill="#E1A981" opacity="1.000000" stroke="none" 
	d="
M249.669434,3156.876465 
	C248.785065,3157.497314 248.109650,3157.599365 246.944794,3157.516846 
	C246.578964,3155.045654 247.648239,3153.139648 248.895157,3151.193848 
	C250.454620,3152.743164 249.708603,3154.640137 249.669434,3156.876465 
z"/>
<path fill="#D1D1D1" opacity="1.000000" stroke="none" 
	d="
M928.608765,3073.869629 
	C927.566467,3073.625732 927.026733,3073.028076 925.990051,3072.083496 
	C926.944824,3070.063721 928.396545,3068.391113 930.146423,3066.375000 
	C930.958740,3069.497314 930.202820,3071.538818 928.608765,3073.869629 
z"/>
<path fill="#CA4D43" opacity="1.000000" stroke="none" 
	d="
M89.735054,3035.268799 
	C88.277214,3034.544189 88.006149,3032.778320 88.125092,3030.217773 
	C90.006332,3030.791748 89.828514,3032.708984 89.735054,3035.268799 
z"/>
<path fill="#4F1939" opacity="1.000000" stroke="none" 
	d="
M844.425659,2982.111816 
	C843.941895,2982.570068 843.875183,2982.273193 843.930664,2982.132324 
	C844.016968,2981.068604 844.047913,2980.145508 844.289795,2978.555176 
	C845.340210,2979.066895 845.347229,2980.336182 844.425659,2982.111816 
z"/>
<path fill="#4F1939" opacity="1.000000" stroke="none" 
	d="
M449.109863,316.238312 
	C449.382660,316.059021 449.754456,316.953369 449.685608,317.430359 
	C448.877960,317.646332 448.618073,317.149750 449.109863,316.238312 
z"/>
<path fill="#D1D1D1" opacity="1.000000" stroke="none" 
	d="
M1301.370117,124.016151 
	C1301.618286,124.601974 1301.230225,125.230186 1300.268677,125.887711 
	C1299.486328,124.987343 1299.801636,124.350639 1301.370117,124.016151 
z"/>
<path fill="#CA4D43" opacity="1.000000" stroke="none" 
	d="
M88.721352,3022.575928 
	C88.446686,3022.231934 88.642319,3021.552002 89.185715,3020.468994 
	C89.419540,3020.790527 89.305595,3021.515381 88.721352,3022.575928 
z"/>
<path fill="#CA4D43" opacity="1.000000" stroke="none" 
	d="
M720.875122,2978.457520 
	C720.970703,2978.322021 721.100891,2978.125732 721.155823,2978.226318 
	C721.210754,2978.326904 721.242798,2978.669434 721.242798,2978.669434 
	C721.242798,2978.669434 720.779541,2978.593018 720.875122,2978.457520 
z"/>
<path fill="#1C517D" opacity="1.000000" stroke="none" 
	d="
M908.546631,1424.696533 
	C908.310913,1424.277344 908.665649,1423.480469 909.468567,1422.200439 
	C909.656860,1422.584351 909.396973,1423.451538 908.546631,1424.696533 
z"/>
<path fill="#13476F" opacity="1.000000" stroke="none" 
	d="
M483.856049,1550.571411 
	C480.490326,1570.495605 473.975830,1588.526733 464.967102,1605.755615 
	C454.585205,1625.610474 441.966492,1643.989746 427.299377,1660.774902 
	C413.741394,1676.290771 399.488251,1691.291870 382.738342,1703.591309 
	C378.996155,1706.339233 375.488770,1709.419556 371.655548,1712.026489 
	C369.109711,1713.757812 365.917633,1714.923462 363.600098,1711.833008 
	C361.399445,1708.898804 364.190399,1706.997192 365.935425,1705.096313 
	C367.058685,1703.872681 368.204498,1702.585327 369.576294,1701.687012 
	C388.185150,1689.501221 402.997711,1673.038208 417.709961,1656.856201 
	C444.199341,1627.720825 464.217773,1594.543945 473.678375,1555.752930 
	C474.226379,1553.505859 474.487488,1550.953979 475.758026,1549.166626 
	C478.445496,1545.386230 481.474304,1544.819092 483.856049,1550.571411 
z"/>
<path fill="#AF3030" opacity="1.000000" stroke="none" 
	d="
M812.522461,928.522583 
	C791.175537,949.576416 769.838989,969.583130 746.131775,986.866516 
	C730.835571,998.017944 713.867004,1005.099854 695.051880,1008.020142 
	C654.136841,1014.370544 615.857544,1005.032654 578.517578,989.300110 
	C537.342957,971.951965 501.238586,946.537109 466.245453,919.290405 
	C460.719971,914.988159 455.211578,910.716187 450.508453,905.505981 
	C448.903442,903.727966 447.330048,901.651733 449.334259,899.381226 
	C451.180878,897.289368 453.784210,897.794128 455.729492,899.190857 
	C461.665039,903.452515 467.548859,907.806152 473.227173,912.402771 
	C504.375366,937.617065 537.581604,959.634583 573.833374,976.831909 
	C598.633850,988.596802 624.621643,997.200012 651.987366,999.576782 
	C678.357056,1001.867004 704.619324,1000.408142 728.546814,986.693237 
	C743.059998,978.374451 755.830017,967.715576 768.243408,956.658813 
	C802.829712,925.852478 834.594177,892.152100 867.402527,859.522461 
	C869.524963,857.411499 871.618530,855.238037 873.959717,853.390442 
	C876.006287,851.775452 878.347168,851.794312 880.224670,853.862610 
	C881.923279,855.733826 881.120667,857.577209 879.733582,859.204041 
	C875.638428,864.006897 871.750366,869.020142 867.328430,873.504578 
	C849.318909,891.768433 831.140381,909.865662 812.522461,928.522583 
z"/>
<path fill="#AF3030" opacity="1.000000" stroke="none" 
	d="
M734.548950,770.511536 
	C758.346436,749.761475 779.723694,727.328857 804.458496,708.726257 
	C814.825317,700.929565 825.570862,693.647034 837.448975,688.238770 
	C838.659607,687.687561 839.844299,687.033630 841.109314,686.656616 
	C844.157532,685.748535 847.418213,685.471497 848.824951,688.954163 
	C850.082764,692.068115 847.318848,693.754150 845.106812,695.189392 
	C843.162170,696.451050 841.033813,697.446411 838.934082,698.449585 
	C820.128845,707.434082 804.153381,720.452209 788.846069,734.254333 
	C769.607056,751.601562 751.195496,769.882568 731.656067,786.874329 
	C720.578552,796.507568 710.375793,806.933899 699.980591,817.204956 
	C695.509094,821.622925 691.763733,826.766846 687.482178,831.389893 
	C685.571716,833.452759 683.609131,836.600098 680.023926,834.286316 
	C677.307251,832.533020 677.493225,828.248718 680.613159,824.589539 
	C685.996765,818.275696 691.583618,812.133972 697.133118,805.963196 
	C708.499451,793.324158 722.277710,783.228088 734.548950,770.511536 
z"/>
<path fill="#AF3030" opacity="1.000000" stroke="none" 
	d="
M665.357483,834.755859 
	C667.114929,838.781982 669.470215,841.771118 669.781860,845.548279 
	C669.954468,847.641052 669.410034,849.582703 667.422852,850.662659 
	C665.225647,851.856812 663.387390,850.665649 662.250000,849.027222 
	C660.364868,846.311707 658.713806,843.397766 657.265076,840.420898 
	C645.744324,816.748718 633.027039,793.770630 618.085693,772.058105 
	C606.951965,755.878784 595.060730,740.316467 581.308167,726.241943 
	C579.457458,724.347839 577.275146,722.657959 576.483459,719.985291 
	C576.001465,718.358093 576.023132,716.658875 577.342285,715.332703 
	C578.661682,714.006348 580.367188,713.959167 581.989014,714.453857 
	C584.999207,715.371948 586.887024,717.843872 588.931885,719.996399 
	C605.699158,737.646912 620.413086,756.933472 633.508667,777.404419 
	C645.168152,795.630371 655.595581,814.588440 665.357483,834.755859 
z"/>
<path fill="#AF3030" opacity="1.000000" stroke="none" 
	d="
M811.331177,654.640015 
	C805.116577,643.573486 799.214905,633.168274 793.384766,622.723083 
	C787.197815,611.638794 779.439087,601.712341 771.091553,592.213684 
	C770.214661,591.215942 769.173950,590.362976 768.286987,589.373169 
	C765.911316,586.721863 761.922424,583.888794 765.595398,580.209534 
	C769.661621,576.136292 771.909546,581.271362 774.396545,583.364685 
	C790.799683,597.171143 800.846680,615.642822 810.864441,634.028259 
	C817.714600,646.600037 824.732483,659.017212 833.362122,670.467407 
	C833.960510,671.261475 834.646484,672.025818 835.067261,672.910706 
	C836.309570,675.523438 836.466492,678.261597 834.107239,680.211426 
	C831.232727,682.587219 829.035645,680.300537 827.390808,678.276733 
	C824.045715,674.160889 820.879456,669.884460 817.873413,665.513306 
	C815.617981,662.233704 813.728088,658.702759 811.331177,654.640015 
z"/>
<path fill="#FEFBFB" opacity="1.000000" stroke="none" 
	d="
M794.929443,3071.194336 
	C788.815979,3072.671631 783.716858,3070.358643 778.870789,3066.153809 
	C769.530151,3058.048828 758.671692,3053.605713 746.016968,3053.974609 
	C737.380920,3054.226562 728.708679,3054.412354 720.240479,3052.000244 
	C718.564148,3051.522461 717.094116,3051.023682 716.090576,3048.605957 
	C726.270203,3029.706787 752.616577,3031.032227 766.346436,3039.165283 
	C773.296082,3043.281738 779.063049,3048.688965 783.905579,3055.039795 
	C787.708862,3060.027344 791.081177,3065.343994 794.929443,3071.194336 
z"/>
<path fill="#FEFEFE" opacity="1.000000" stroke="none" 
	d="
M1618.307129,453.904938 
	C1615.569458,454.696808 1612.944092,454.259521 1610.328491,454.312347 
	C1607.102173,454.377472 1604.372070,455.392273 1604.988281,459.526611 
	C1606.626953,470.516449 1604.537842,481.551880 1605.657837,492.619263 
	C1606.549316,501.429596 1605.696899,501.515625 1613.578735,503.996979 
	C1614.828369,504.390411 1616.077148,504.786255 1617.935669,505.598450 
	C1618.514160,522.316895 1618.561157,538.618591 1618.419067,554.918579 
	C1618.349365,562.922424 1618.190186,563.112427 1610.172974,564.332153 
	C1596.372681,566.431458 1582.548340,568.381714 1568.714600,570.249878 
	C1557.985840,571.698608 1557.944214,571.600708 1557.923462,560.307434 
	C1557.895264,545.004150 1557.918823,529.700684 1557.915039,514.397339 
	C1557.912476,504.084229 1557.901123,493.771118 1557.839722,482.461365 
	C1559.628174,478.271667 1562.883179,476.491608 1565.342041,473.914215 
	C1568.064331,471.060333 1571.126099,468.192413 1569.625122,463.759735 
	C1567.958374,458.837952 1563.501343,459.892639 1558.872192,459.751709 
	C1557.998169,435.764191 1557.889038,411.774261 1557.936523,387.784607 
	C1557.952515,379.715118 1558.545898,379.158112 1566.644897,380.206665 
	C1581.500854,382.129944 1596.333740,384.248108 1611.145752,386.485443 
	C1617.744385,387.482178 1618.405884,388.373566 1618.440430,395.915588 
	C1618.527710,414.907684 1618.440796,433.900574 1618.307129,453.904938 
z"/>
<path fill="#FEFBFB" opacity="1.000000" stroke="none" 
	d="
M112.177803,3133.240234 
	C108.637100,3130.118408 107.509781,3125.137695 106.600800,3120.432617 
	C103.506813,3104.417725 96.878410,3089.789307 89.884201,3074.473389 
	C92.384499,3069.391602 95.873833,3069.291748 99.907555,3071.670166 
	C106.600128,3075.616211 110.426895,3081.639648 112.261368,3088.991455 
	C115.867729,3103.444580 114.534126,3117.942871 112.177803,3133.240234 
z"/>
<path fill="#000000" opacity="1.000000" stroke="none" 
	d="
M785.588379,2975.236084 
	C786.932739,2978.770508 784.709167,2980.103760 783.339294,2981.882568 
	C779.253357,2987.188232 776.677002,2993.240479 774.747986,2999.602783 
	C774.233398,3001.300049 774.110962,3002.930176 775.997437,3003.788086 
	C777.977112,3004.688477 780.175598,3004.490234 781.351685,3002.693604 
	C782.965393,3000.228760 783.998840,2997.387207 785.316162,2994.724609 
	C792.649292,2979.902100 803.957031,2970.190186 821.346191,2967.640625 
	C821.551758,2968.701416 821.161438,2969.833496 820.418823,2970.157227 
	C804.724792,2976.997559 796.856323,2991.000977 788.649231,3004.699219 
	C787.565735,3006.507812 787.465393,3008.464111 788.018555,3011.268066 
	C777.876648,3010.981201 770.356445,3004.338623 761.966553,2998.654297 
	C766.674927,2998.444336 769.318481,2996.264404 771.733887,2992.055664 
	C775.387268,2985.689941 777.730957,2978.081787 785.588379,2975.236084 
z"/>
<path fill="#000000" opacity="1.000000" stroke="none" 
	d="
M883.140137,3006.302490 
	C875.076477,3021.478027 863.324341,3031.031250 846.020874,3032.597168 
	C853.431946,3018.815430 863.244141,3008.068359 880.455811,3005.384766 
	C881.728577,3005.322266 882.264221,3005.438232 883.140137,3006.302490 
z"/>
<path fill="#000000" opacity="1.000000" stroke="none" 
	d="
M787.993774,3012.619141 
	C791.425781,3012.806152 794.144470,3012.335693 795.928772,3008.525879 
	C797.439697,3005.300293 799.676697,3002.414795 802.074463,2998.883545 
	C803.226379,2998.504883 803.896362,2998.620605 804.693787,2999.749023 
	C803.629578,3006.098145 798.170532,3010.202881 800.180237,3017.295654 
	C795.526062,3017.917480 791.972351,3015.210938 787.993774,3012.619141 
z"/>
<path fill="#000000" opacity="1.000000" stroke="none" 
	d="
M811.326416,3007.981445 
	C813.510742,3009.094971 813.413574,3010.555908 812.721619,3012.066162 
	C811.498718,3014.734863 811.367432,3017.449463 812.156738,3021.143066 
	C807.656799,3023.576172 804.471008,3020.211914 800.282288,3018.564209 
	C807.023315,3018.522705 807.132141,3011.449951 811.326416,3007.981445 
z"/>
<path fill="#000000" opacity="1.000000" stroke="none" 
	d="
M884.235596,3004.216797 
	C884.616455,3005.266113 884.401733,3005.830811 883.764893,3006.697266 
	C883.088501,3006.757324 882.696655,3006.463379 881.748840,3005.687988 
	C881.397766,3004.599854 881.718262,3004.062500 882.495239,3003.270996 
	C883.150024,3003.226318 883.463867,3003.505127 884.235596,3004.216797 
z"/>
<path fill="#000000" opacity="1.000000" stroke="none" 
	d="
M774.435059,2952.626465 
	C774.795349,2948.427490 777.858887,2948.218994 781.360596,2947.744385 
	C781.127441,2951.584473 777.879639,2952.215088 774.435059,2952.626465 
z"/>
<path fill="#000000" opacity="1.000000" stroke="none" 
	d="
M793.266052,2967.829102 
	C795.927917,2970.954834 793.275024,2971.362305 790.742676,2972.180176 
	C788.210327,2969.108643 790.760986,2968.657227 793.266052,2967.829102 
z"/>
<path fill="#000000" opacity="1.000000" stroke="none" 
	d="
M789.288086,2971.435547 
	C790.462646,2974.212402 788.771240,2975.112793 786.647705,2976.119141 
	C783.450745,2972.692139 786.494873,2972.058105 789.288086,2971.435547 
z"/>
<path fill="#000000" opacity="1.000000" stroke="none" 
	d="
M811.425171,2959.821289 
	C811.034180,2961.817383 809.056152,2961.839355 806.570679,2962.161621 
	C806.830322,2959.928467 808.963440,2960.200195 811.425171,2959.821289 
z"/>
<path fill="#000000" opacity="1.000000" stroke="none" 
	d="
M797.447998,2965.603516 
	C797.977600,2967.880615 796.443970,2968.467529 794.479248,2968.602539 
	C793.984497,2966.174561 795.399841,2965.722412 797.447998,2965.603516 
z"/>
<path fill="#000000" opacity="1.000000" stroke="none" 
	d="
M795.494629,2955.788818 
	C793.801941,2953.684570 795.315552,2954.319336 796.363464,2954.544434 
	C796.541199,2954.582764 796.651794,2954.933350 796.793457,2955.139648 
	C795.969177,2954.091553 796.011658,2957.052246 795.494629,2955.788818 
z"/>
<path fill="#000000" opacity="1.000000" stroke="none" 
	d="
M805.423157,2961.644775 
	C805.985291,2963.719482 804.589905,2964.053467 802.579712,2964.260742 
	C801.770996,2962.038330 803.340454,2961.783691 805.423157,2961.644775 
z"/>
<path fill="#000000" opacity="1.000000" stroke="none" 
	d="
M801.433960,2963.622070 
	C801.958496,2965.708252 800.543213,2966.027588 798.574951,2966.268555 
	C797.841309,2964.086182 799.437683,2963.829346 801.433960,2963.622070 
z"/>
<path fill="#000000" opacity="1.000000" stroke="none" 
	d="
M825.332214,2991.816895 
	C826.321594,2998.233643 820.593872,2999.736816 816.549927,3002.554199 
	C816.297302,2996.458984 820.482727,2994.094482 825.332214,2991.816895 
z"/>
<path fill="#000000" opacity="1.000000" stroke="none" 
	d="
M822.772827,2981.041016 
	C820.809204,2984.510498 818.129700,2986.910889 813.554077,2987.799805 
	C813.534485,2982.583984 817.489807,2981.780273 820.613586,2979.484375 
	C821.644897,2979.614258 821.979248,2980.012451 822.772827,2981.041016 
z"/>
<path fill="#4F1939" opacity="1.000000" stroke="none" 
	d="
M839.348511,2983.844238 
	C839.397034,2987.812744 835.531006,2987.758789 832.715698,2989.860352 
	C831.810364,2989.523682 831.537781,2989.003662 831.607666,2987.672852 
	C833.751099,2984.831787 835.939636,2983.623779 839.348511,2983.844238 
z"/>
<path fill="#000000" opacity="1.000000" stroke="none" 
	d="
M803.106262,2998.997070 
	C803.738098,2995.383301 805.248047,2992.702148 809.400513,2991.057861 
	C809.570007,2995.242188 807.477844,2997.351318 805.365356,3000.210449 
	C804.432861,3000.375732 804.044434,2999.990723 803.106262,2998.997070 
z"/>
<path fill="#000000" opacity="1.000000" stroke="none" 
	d="
M815.329468,3001.978027 
	C818.616882,3005.448730 815.198120,3006.737061 812.726807,3008.364502 
	C810.966797,3005.213867 813.319153,3003.855957 815.329468,3001.978027 
z"/>
<path fill="#000000" opacity="1.000000" stroke="none" 
	d="
M829.520264,2989.403809 
	C829.976746,2991.907227 828.422607,2992.462158 826.477905,2992.601074 
	C826.026062,2990.097900 827.554932,2989.524658 829.520264,2989.403809 
z"/>
<path fill="#4F1939" opacity="1.000000" stroke="none" 
	d="
M843.327026,2981.961914 
	C843.994019,2983.867188 842.631348,2984.111816 840.668518,2984.195801 
	C840.365784,2982.576172 841.451721,2982.115479 843.327026,2981.961914 
z"/>
<path fill="#000000" opacity="1.000000" stroke="none" 
	d="
M831.270996,2987.206787 
	C831.987366,2987.391602 832.024658,2987.921387 832.072449,2989.247559 
	C831.726440,2990.232178 831.370056,2990.420654 830.478088,2990.328613 
	C829.326111,2988.999268 829.540344,2988.166748 831.270996,2987.206787 
z"/>
<path fill="#000000" opacity="1.000000" stroke="none" 
	d="
M170.818939,3013.930664 
	C172.600494,3014.265137 173.769821,3014.634277 173.349731,3015.783447 
	C173.099503,3016.467773 171.961655,3017.213135 171.183548,3017.258545 
	C163.717087,3017.695312 156.228699,3017.650146 147.243668,3019.617676 
	C153.486237,3013.881836 154.625000,3013.647949 170.818939,3013.930664 
z"/>
<path fill="#000000" opacity="1.000000" stroke="none" 
	d="
M127.526062,3024.188965 
	C138.057159,3018.180908 138.057159,3018.180908 146.483597,3018.077637 
	C141.681244,3022.721924 135.527405,3022.792480 129.821228,3025.402588 
	C128.572037,3025.287354 128.078903,3025.126221 127.526062,3024.188965 
z"/>
<path fill="#000000" opacity="1.000000" stroke="none" 
	d="
M126.391403,3025.960449 
	C125.427940,3027.686035 123.930428,3028.964600 122.564415,3027.830811 
	C120.831497,3026.392578 123.398415,3026.178467 124.365921,3024.881348 
	C125.356346,3024.747559 125.763222,3025.008545 126.391403,3025.960449 
z"/>
<path fill="#000000" opacity="1.000000" stroke="none" 
	d="
M128.686493,3024.923340 
	C128.624390,3025.897217 128.109940,3026.232178 127.067230,3026.552734 
	C126.321571,3026.302246 126.030449,3025.953613 125.344391,3025.045898 
	C125.394951,3024.027100 125.921127,3023.695557 126.997177,3023.452393 
	C127.746841,3023.741455 128.027344,3024.069580 128.686493,3024.923340 
z"/>
</svg>